<svg width="24" height="24" viewBox="0 0 24 24" fill="none" xmlns="http://www.w3.org/2000/svg">
<path d="M22.2234 -1.52588e-05H1.77187C0.792187 -1.52588e-05 0 0.773422 0 1.72967V22.2656C0 23.2219 0.792187 24 1.77187 24H22.2234C23.2031 24 24 23.2219 24 22.2703V1.72967C24 0.773422 23.2031 -1.52588e-05 22.2234 -1.52588e-05ZM7.12031 20.4515H3.55781V8.9953H7.12031V20.4515ZM5.33906 7.43436C4.19531 7.43436 3.27188 6.51092 3.27188 5.37186C3.27188 4.2328 4.19531 3.30936 5.33906 3.30936C6.47813 3.30936 7.40156 4.2328 7.40156 5.37186C7.40156 6.50623 6.47813 7.43436 5.33906 7.43436ZM20.4516 20.4515H16.8937V14.8828C16.8937 13.5562 16.8703 11.8453 15.0422 11.8453C13.1906 11.8453 12.9094 13.2937 12.9094 14.789V20.4515H9.35625V8.9953H12.7687V10.5609H12.8156C13.2891 9.66092 14.4516 8.70936 16.1813 8.70936C19.7859 8.70936 20.4516 11.0812 20.4516 14.1656V20.4515Z" fill="#717680"/>
</svg>
