<svg width="72" height="32" viewBox="0 0 72 32" fill="none" xmlns="http://www.w3.org/2000/svg">
<path d="M25.5695 0.821937C23.6201 -1.43636 15.0389 8.70798 15.0389 8.70798L31.6653 8.7082C31.6653 8.7082 27.5188 3.08024 25.5695 0.821937Z" fill="white"/>
<path d="M69.7884 7.82733C70.8436 13.2369 45.5046 21.8054 31.7765 23.173C18.0483 24.5406 2.59857 21.2174 1.54344 15.8077C0.488314 10.3981 13.7789 6.52211 27.507 5.15451C41.2352 3.78691 68.7333 2.41772 69.7884 7.82733Z" fill="#052454"/>
<path d="M2.39916 17.5282C22.1312 20.0092 60.0257 11.7983 69.8312 8.22445C69.8312 18.1484 17.67 31.6698 2.39916 17.5282Z" fill="#051B3E"/>
<path d="M69.1423 22.3967C70.5188 28.8641 17.6241 18.19 20.5446 15.8627C23.4651 13.5354 53.6189 11.227 53.6189 11.227C53.6189 11.227 67.7659 15.9292 69.1423 22.3967Z" fill="white"/>
<path d="M59.5624 1.6193C57.8509 4.31026 54.9017 6.73733 54.9017 6.73733C54.9017 6.73733 66.024 6.44654 65.7957 5.84453C65.5673 5.24253 61.2739 -1.07167 59.5624 1.6193Z" fill="white"/>
<path d="M49.8348 19.9277L47.5941 18.9122L47.1548 13.6171L54.3222 13.3682L56.4281 14.4925L56.8588 19.6838L49.8348 19.9277Z" fill="#C65C1D"/>
<path d="M42.6615 20.2479L40.7562 19.4308L40.4013 15.1528L46.5086 14.9407L48.2987 15.8459L48.6467 20.04L42.6615 20.2479Z" fill="#C65C1D"/>
<path d="M46.0537 15.5399L44.009 14.9199L42.6523 10.5863L48.5371 9.67891L50.8013 10.4312L51.8208 14.6507L46.0537 15.5399Z" fill="#C65C1D"/>
<path d="M7.02015 13.9728C8.21818 14.9105 13.1814 16.7861 15.2352 13.9727C14.5506 14.0952 6.50668 13.8504 7.02015 13.9728Z" fill="white"/>
</svg>
