<svg width="72" height="40" viewBox="0 0 72 40" fill="none" xmlns="http://www.w3.org/2000/svg">
<path d="M25.5695 1.02742C23.6201 -1.79545 15.0389 10.885 15.0389 10.885L31.6653 10.8852C31.6653 10.8852 27.5188 3.8503 25.5695 1.02742Z" fill="white"/>
<path d="M69.7884 9.78416C70.8435 16.5462 45.5046 27.2568 31.7764 28.9663C18.0483 30.6758 2.59854 26.5217 1.54342 19.7597C0.48829 12.9977 13.7789 8.15264 27.507 6.44314C41.2351 4.73364 68.7333 3.02215 69.7884 9.78416Z" fill="#052454"/>
<path d="M2.39914 21.9102C22.1312 25.0115 60.0257 14.7479 69.8312 10.2806C69.8312 22.6855 17.67 39.5873 2.39914 21.9102Z" fill="#051B3E"/>
<path d="M69.1423 27.9959C70.5188 36.0802 17.6241 22.7375 20.5446 19.8283C23.4651 16.9192 53.6189 14.0337 53.6189 14.0337C53.6189 14.0337 67.7658 19.9116 69.1423 27.9959Z" fill="white"/>
<path d="M59.5623 2.02412C57.8508 5.38782 54.9017 8.42166 54.9017 8.42166C54.9017 8.42166 66.024 8.05818 65.7957 7.30567C65.5673 6.55316 61.2739 -1.33958 59.5623 2.02412Z" fill="white"/>
<path d="M49.8063 24.9032L47.5633 23.645L47.1548 17.049L54.3512 16.7162L56.4583 18.1104L56.8588 24.5771L49.8063 24.9032Z" fill="#C65C1D"/>
<path d="M49.8063 24.9032L47.5633 23.645L47.1548 17.049M49.8063 24.9032L56.8588 24.5771L56.4583 18.1104M49.8063 24.9032L49.4058 18.4365M56.4583 18.1104L54.3512 16.7162L47.1548 17.049M56.4583 18.1104L49.4058 18.4365M47.1548 17.049L49.4058 18.4365" stroke="white" stroke-width="0.138012"/>
<path d="M42.6385 25.3044L40.7313 24.2925L40.4013 18.9644L46.5321 18.6809L48.3231 19.803L48.6467 25.0266L42.6385 25.3044Z" fill="#C65C1D"/>
<path d="M42.6385 25.3044L40.7313 24.2925L40.4013 18.9644M42.6385 25.3044L48.6467 25.0266L48.3231 19.803M42.6385 25.3044L42.3149 20.0808M48.3231 19.803L46.5321 18.6809L40.4013 18.9644M48.3231 19.803L42.3149 20.0808M40.4013 18.9644L42.3149 20.0808" stroke="white" stroke-width="0.138012"/>
<path d="M46.0322 19.4202L43.9859 18.6535L42.6523 13.2539L48.558 12.1038L50.8235 13.0347L51.8198 18.2931L46.0322 19.4202Z" fill="#C65C1D"/>
<path d="M46.0322 19.4202L43.9859 18.6535L42.6523 13.2539M46.0322 19.4202L51.8198 18.2931L50.8235 13.0347M46.0322 19.4202L45.0143 14.2496M50.8235 13.0347L48.558 12.1038L42.6523 13.2539M50.8235 13.0347L45.0143 14.2496M42.6523 13.2539L45.0143 14.2496" stroke="white" stroke-width="0.138012"/>
<path d="M7.02014 17.4659C8.21817 18.6381 13.1814 20.9827 15.2352 17.4659C14.5506 17.619 6.50667 17.313 7.02014 17.4659Z" fill="white"/>
</svg>
