<svg width="86" height="32" viewBox="0 0 86 32" fill="none" xmlns="http://www.w3.org/2000/svg">
<g clip-path="url(#clip0_68_1323)">
<path d="M81.7 0.4H4.3C2.12308 0.4 0.358337 2.36995 0.358337 4.8V27.2C0.358337 29.6301 2.12308 31.6 4.3 31.6H81.7C83.8769 31.6 85.6417 29.6301 85.6417 27.2V4.8C85.6417 2.36995 83.8769 0.4 81.7 0.4Z" fill="black"/>
<path d="M81.7 0.4H4.3C2.12308 0.4 0.358337 2.36995 0.358337 4.8V27.2C0.358337 29.6301 2.12308 31.6 4.3 31.6H81.7C83.8769 31.6 85.6417 29.6301 85.6417 27.2V4.8C85.6417 2.36995 83.8769 0.4 81.7 0.4Z" stroke="#A6A6A6" stroke-width="0.716667"/>
<path d="M17.7049 16.6104C17.7136 15.8745 17.8929 15.153 18.2263 14.5129C18.5597 13.8728 19.0362 13.335 19.6114 12.9496C19.2459 12.3808 18.7638 11.9126 18.2033 11.5824C17.6428 11.2521 17.0193 11.0688 16.3824 11.0472C15.0238 10.8917 13.7068 11.9331 13.0145 11.9331C12.3088 11.9331 11.2429 11.0626 10.0951 11.0883C9.35264 11.1144 8.6291 11.3497 7.99492 11.7712C7.36074 12.1928 6.83754 12.7861 6.47633 13.4935C4.91169 16.4458 6.07877 20.7847 7.5776 23.1712C8.32745 24.3397 9.20386 25.6451 10.3507 25.5988C11.4728 25.548 11.8919 24.8189 13.2465 24.8189C14.5885 24.8189 14.9818 25.5988 16.1518 25.5693C17.3559 25.548 18.1146 24.3956 18.8382 23.216C19.377 22.3833 19.7916 21.463 20.0667 20.4892C19.3671 20.1668 18.7701 19.627 18.3501 18.9372C17.9301 18.2475 17.7057 17.4383 17.7049 16.6104Z" fill="white"/>
<path d="M15.4949 9.47768C16.1514 8.61872 16.4749 7.51468 16.3966 6.4C15.3936 6.51482 14.467 7.03728 13.8016 7.86329C13.4762 8.2668 13.227 8.73624 13.0683 9.2448C12.9095 9.75336 12.8442 10.291 12.8763 10.827C13.3779 10.8326 13.8743 10.7142 14.3279 10.4804C14.7815 10.2467 15.1805 9.90384 15.4949 9.47768Z" fill="white"/>
<path d="M26.3669 6.80117H27.8502C29.1321 6.80117 29.7556 7.65195 29.7556 9.19528C29.7556 10.7386 29.1258 11.6 27.8502 11.6H26.3669V6.80117ZM27.0818 7.47265V10.9285H27.7715C28.6219 10.9285 29.0218 10.3554 29.0218 9.20584C29.0218 8.0492 28.6187 7.47265 27.7715 7.47265H27.0818ZM32.0169 7.8207C32.8862 7.8207 33.494 8.45 33.494 9.49416V9.97576C33.494 11.055 32.8862 11.6633 32.0169 11.6633C31.1351 11.6633 30.5336 11.0621 30.5336 9.97928V9.49768C30.5336 8.48168 31.1445 7.8207 32.0169 7.8207ZM32.0201 8.45C31.5225 8.45 31.2391 8.91408 31.2391 9.53632V9.9512C31.2391 10.5734 31.5036 11.034 32.0201 11.034C32.5303 11.034 32.7917 10.577 32.7917 9.9512V9.53632C32.7917 8.91408 32.5177 8.45 32.0201 8.45ZM38.6275 7.88398L37.752 11.6H37.0403L36.3442 8.85784H36.3253L35.6419 11.6H34.927L34.0136 7.88398H34.7664L35.3018 10.7176H35.3332L36.0041 7.88398H36.6623L37.352 10.7176H37.3836L37.9284 7.88398H38.6275ZM39.3204 11.6V7.88398H40.007V8.55192H40.0417C40.1267 8.26016 40.3692 7.82773 41.0431 7.82773C41.714 7.82773 42.1644 8.24256 42.1644 9.08984V11.6H41.4652V9.31832C41.4652 8.75232 41.2007 8.49216 40.8069 8.49216C40.2904 8.49216 40.0196 8.93512 40.0196 9.53632V11.6H39.3204ZM43.2225 11.6V6.54805H43.9217V11.6H43.2225ZM46.3216 7.8207C47.1909 7.8207 47.7987 8.45 47.7987 9.49416V9.97576C47.7987 11.055 47.1909 11.6633 46.3216 11.6633C45.4397 11.6633 44.8382 11.0621 44.8382 9.97928V9.49768C44.8382 8.48168 45.4492 7.8207 46.3216 7.8207ZM46.3248 8.45C45.8271 8.45 45.5437 8.91408 45.5437 9.53632V9.9512C45.5437 10.5734 45.8083 11.034 46.3248 11.034C46.835 11.034 47.0963 10.577 47.0963 9.9512V9.53632C47.0963 8.91408 46.8223 8.45 46.3248 8.45ZM49.6096 11.6562C48.964 11.6562 48.5198 11.2133 48.5198 10.5207C48.5198 9.86328 48.9293 9.42032 49.6978 9.42032H50.5386V9.07224C50.5386 8.64688 50.2962 8.44648 49.9119 8.44648C49.534 8.44648 49.3639 8.62224 49.3104 8.86832H48.6458C48.6868 8.24608 49.1056 7.82773 49.934 7.82773C50.6458 7.82773 51.2346 8.15824 51.2346 9.0828V11.6H50.5702V11.1183H50.5386C50.3906 11.4031 50.1009 11.6562 49.6096 11.6562ZM49.8269 11.0516C50.2237 11.0516 50.5386 10.7492 50.5386 10.345V9.94416H49.808C49.4017 9.94416 49.2222 10.1726 49.2222 10.482C49.2222 10.8687 49.5119 11.0516 49.8269 11.0516ZM53.3889 7.83477C53.8581 7.83477 54.2172 8.0668 54.3463 8.44296H54.381V6.54805H55.0801V11.6H54.3998V11.0058H54.3652C54.2644 11.382 53.8645 11.6492 53.3794 11.6492C52.6141 11.6492 52.1165 11.041 52.1165 10.0602V9.42384C52.1165 8.44296 52.6235 7.83477 53.3889 7.83477ZM53.5842 8.47464C53.118 8.47464 52.8283 8.86136 52.8283 9.53632V9.94416C52.8283 10.6226 53.1212 11.0094 53.5999 11.0094C54.0723 11.0094 54.381 10.6262 54.381 9.99336V9.43088C54.381 8.85784 54.044 8.47464 53.5842 8.47464ZM58.9192 7.8207C59.7885 7.8207 60.3963 8.45 60.3963 9.49416V9.97576C60.3963 11.055 59.7885 11.6633 58.9192 11.6633C58.0374 11.6633 57.4359 11.0621 57.4359 9.97928V9.49768C57.4359 8.48168 58.0468 7.8207 58.9192 7.8207ZM58.9224 8.45C58.4247 8.45 58.1413 8.91408 58.1413 9.53632V9.9512C58.1413 10.5734 58.4059 11.034 58.9224 11.034C59.4326 11.034 59.694 10.577 59.694 9.9512V9.53632C59.694 8.91408 59.42 8.45 58.9224 8.45ZM61.2971 11.6V7.88398H61.9836V8.55192H62.0183C62.1033 8.26016 62.3458 7.82773 63.0198 7.82773C63.6906 7.82773 64.1409 8.24256 64.1409 9.08984V11.6H63.4418V9.31832C63.4418 8.75232 63.1772 8.49216 62.7836 8.49216C62.2671 8.49216 61.9962 8.93512 61.9962 9.53632V11.6H61.2971ZM66.8463 7.90859V6.98047H67.5297V7.90859H68.2761V8.52032H67.5297V10.4926C67.5297 10.8969 67.6652 11.0094 68.04 11.0094C68.1344 11.0094 68.2604 11.0023 68.314 10.9953V11.593C68.2573 11.6035 68.0242 11.6246 67.8668 11.6246C67.0574 11.6246 66.8368 11.3012 66.8368 10.5558V8.52032H66.3298V7.90859H66.8463ZM69.158 11.6V6.54805H69.854V8.55192H69.8886C69.9611 8.28832 70.2319 7.82773 70.8996 7.82773C71.5484 7.82773 72.0114 8.24608 72.0114 9.09336V11.6H71.3154V9.32184C71.3154 8.75584 71.0351 8.49216 70.6382 8.49216C70.1374 8.49216 69.854 8.93168 69.854 9.53632V11.6H69.158ZM74.3577 11.6633C73.4504 11.6633 72.8871 11.041 72.8871 9.99336V9.49064C72.8871 8.43592 73.5042 7.8207 74.3169 7.8207C75.1511 7.8207 75.7402 8.4676 75.7402 9.49064V9.92656H73.5794V10.1094C73.5794 10.6438 73.8632 11.0375 74.3542 11.0375C74.7197 11.0375 74.9719 10.8442 75.0192 10.6121H75.7022C75.6614 11.041 75.255 11.6633 74.3577 11.6633ZM73.5794 9.4168H75.0565V9.3676C75.0565 8.80856 74.7641 8.43592 74.3198 8.43592C73.8761 8.43592 73.5794 8.80856 73.5794 9.3676V9.4168Z" fill="white"/>
<path d="M27.381 24.4H25.926L28.8864 14.8023H30.4864L33.4405 24.4H31.9288L31.1666 21.7421H28.1495L27.381 24.4ZM29.6927 16.4616H29.636L28.4707 20.5187H30.8453L29.6927 16.4616ZM37.4562 24.5054C36.5932 24.5054 35.9381 24.0484 35.5854 23.3664H35.535V26.868H34.1366V16.968H35.4972V18.0578H35.5476C35.913 17.3476 36.5932 16.8695 37.4876 16.8695C38.9804 16.8695 40.045 18.1281 40.045 20.35V21.0109C40.045 23.2187 38.9931 24.5054 37.4562 24.5054ZM37.1349 23.2187C38.023 23.2187 38.6277 22.4242 38.6277 20.9265V20.4062C38.6277 18.9648 38.0608 18.1421 37.1097 18.1421C36.1334 18.1421 35.5224 19.0281 35.5224 20.3992V20.9265C35.5224 22.3328 36.1397 23.2187 37.1349 23.2187ZM44.5645 24.5054C43.7015 24.5054 43.0465 24.0484 42.6938 23.3664H42.6434V26.868H41.245V16.968H42.6056V18.0578H42.656C43.0213 17.3476 43.7016 16.8695 44.596 16.8695C46.0888 16.8695 47.1534 18.1281 47.1534 20.35V21.0109C47.1534 23.2187 46.1015 24.5054 44.5645 24.5054ZM44.2433 23.2187C45.1314 23.2187 45.7361 22.4242 45.7361 20.9265V20.4062C45.7361 18.9648 45.1692 18.1421 44.2181 18.1421C43.2417 18.1421 42.6308 19.0281 42.6308 20.3992V20.9265C42.6308 22.3328 43.248 23.2187 44.2433 23.2187ZM50.0511 21.7351H51.4494C51.5124 22.5648 52.1675 23.275 53.3832 23.275C54.4981 23.275 55.1595 22.6914 55.1595 21.7844C55.1595 21.0531 54.7185 20.6593 53.7989 20.4132L52.388 20.0195C51.2794 19.7312 50.2841 18.9929 50.2841 17.432C50.2841 15.5968 51.7203 14.5914 53.3895 14.5914C55.0587 14.5914 56.4507 15.5968 56.4822 17.3898H55.1091C55.0461 16.5742 54.4854 15.8992 53.3706 15.8992C52.388 15.8992 51.7203 16.4195 51.7203 17.3124C51.7203 17.9383 52.1108 18.3883 52.9108 18.5921L54.3154 18.9788C55.6067 19.3304 56.5893 20.0124 56.5893 21.6437C56.5893 23.5281 55.2225 24.5898 53.2761 24.5898C50.8826 24.5898 50.0826 23.0288 50.0511 21.7351ZM58.2933 16.968V15.1609H59.6664V16.968H60.964V18.2195H59.6664V22.1851C59.6664 22.9937 59.9373 23.2187 60.6868 23.2187C60.8065 23.2187 60.9199 23.2187 61.0018 23.2047V24.4C60.8884 24.4211 60.6238 24.4492 60.3404 24.4492C58.7216 24.4492 58.2744 23.8023 58.2744 22.3116V18.2195H57.3548V16.968H58.2933ZM64.7403 16.8414C66.6551 16.8414 67.6944 18.346 67.6944 20.3711V20.9687C67.6944 23.064 66.6614 24.5265 64.7403 24.5265C62.8191 24.5265 61.7735 23.064 61.7735 20.9687V20.3711C61.7735 18.3531 62.8254 16.8414 64.7403 16.8414ZM64.7403 18.0929C63.701 18.0929 63.1845 19.0421 63.1845 20.3921V20.9616C63.1845 22.2906 63.6947 23.268 64.7403 23.268C65.7859 23.268 66.2898 22.2976 66.2898 20.9616V20.3921C66.2898 19.0351 65.7796 18.0929 64.7403 18.0929ZM68.8756 24.4V16.968H70.274V17.9452H70.3244C70.4944 17.4812 70.992 16.8624 71.9182 16.8624C72.101 16.8624 72.2579 16.8765 72.3905 16.9047V18.2828C72.2708 18.2476 72.025 18.2265 71.7921 18.2265C70.6708 18.2265 70.2928 19 70.2928 19.9984V24.4H68.8756ZM75.7825 24.5265C74.0001 24.5265 72.8664 23.2116 72.8664 21.0109V20.2585C72.8664 18.1844 73.9743 16.8414 75.7259 16.8414C77.5018 16.8414 78.5725 18.2336 78.5725 20.3288V21.039H74.2452V21.2148C74.2452 22.4664 74.8501 23.296 75.8011 23.296C76.5128 23.296 76.998 22.9023 77.1685 22.2624H78.4972C78.2958 23.4648 77.4265 24.5265 75.7825 24.5265ZM74.2452 19.9492H77.2058V19.9351C77.2058 18.8804 76.6203 18.0508 75.7323 18.0508C74.8315 18.0508 74.2452 18.8804 74.2452 19.9351V19.9492Z" fill="white"/>
</g>
<defs>
<clipPath id="clip0_68_1323">
<rect width="86" height="32" fill="white"/>
</clipPath>
</defs>
</svg>
