<svg width="24" height="24" viewBox="0 0 24 24" fill="none" xmlns="http://www.w3.org/2000/svg">
<path d="M12 2.16328C15.2063 2.16328 15.5859 2.17734 16.8469 2.23359C18.0188 2.28516 18.6516 2.48203 19.0734 2.64609C19.6313 2.86172 20.0344 3.12422 20.4516 3.54141C20.8734 3.96328 21.1313 4.36172 21.3469 4.91953C21.5109 5.34141 21.7078 5.97891 21.7594 7.14609C21.8156 8.41172 21.8297 8.79141 21.8297 11.993C21.8297 15.1992 21.8156 15.5789 21.7594 16.8398C21.7078 18.0117 21.5109 18.6445 21.3469 19.0664C21.1313 19.6242 20.8688 20.0273 20.4516 20.4445C20.0297 20.8664 19.6313 21.1242 19.0734 21.3398C18.6516 21.5039 18.0141 21.7008 16.8469 21.7523C15.5813 21.8086 15.2016 21.8227 12 21.8227C8.79375 21.8227 8.41406 21.8086 7.15313 21.7523C5.98125 21.7008 5.34844 21.5039 4.92656 21.3398C4.36875 21.1242 3.96563 20.8617 3.54844 20.4445C3.12656 20.0227 2.86875 19.6242 2.65313 19.0664C2.48906 18.6445 2.29219 18.007 2.24063 16.8398C2.18438 15.5742 2.17031 15.1945 2.17031 11.993C2.17031 8.78672 2.18438 8.40703 2.24063 7.14609C2.29219 5.97422 2.48906 5.34141 2.65313 4.91953C2.86875 4.36172 3.13125 3.95859 3.54844 3.54141C3.97031 3.11953 4.36875 2.86172 4.92656 2.64609C5.34844 2.48203 5.98594 2.28516 7.15313 2.23359C8.41406 2.17734 8.79375 2.16328 12 2.16328ZM12 0.00234413C8.74219 0.00234413 8.33438 0.0164066 7.05469 0.0726566C5.77969 0.128907 4.90313 0.335157 4.14375 0.630469C3.35156 0.939844 2.68125 1.34766 2.01563 2.01797C1.34531 2.68359 0.9375 3.35391 0.628125 4.14141C0.332812 4.90547 0.126563 5.77734 0.0703125 7.05234C0.0140625 8.33672 0 8.74453 0 12.0023C0 15.2602 0.0140625 15.668 0.0703125 16.9477C0.126563 18.2227 0.332812 19.0992 0.628125 19.8586C0.9375 20.6508 1.34531 21.3211 2.01563 21.9867C2.68125 22.6523 3.35156 23.0648 4.13906 23.3695C4.90313 23.6648 5.775 23.8711 7.05 23.9273C8.32969 23.9836 8.7375 23.9977 11.9953 23.9977C15.2531 23.9977 15.6609 23.9836 16.9406 23.9273C18.2156 23.8711 19.0922 23.6648 19.8516 23.3695C20.6391 23.0648 21.3094 22.6523 21.975 21.9867C22.6406 21.3211 23.0531 20.6508 23.3578 19.8633C23.6531 19.0992 23.8594 18.2273 23.9156 16.9523C23.9719 15.6727 23.9859 15.2648 23.9859 12.007C23.9859 8.74922 23.9719 8.34141 23.9156 7.06172C23.8594 5.78672 23.6531 4.91016 23.3578 4.15078C23.0625 3.35391 22.6547 2.68359 21.9844 2.01797C21.3188 1.35234 20.6484 0.939844 19.8609 0.635157C19.0969 0.339844 18.225 0.133594 16.95 0.0773441C15.6656 0.0164066 15.2578 0.00234413 12 0.00234413Z" fill="#717680"/>
<path d="M12 5.83828C8.59688 5.83828 5.83594 8.59922 5.83594 12.0023C5.83594 15.4055 8.59688 18.1664 12 18.1664C15.4031 18.1664 18.1641 15.4055 18.1641 12.0023C18.1641 8.59922 15.4031 5.83828 12 5.83828ZM12 16.0008C9.79219 16.0008 8.00156 14.2102 8.00156 12.0023C8.00156 9.79453 9.79219 8.00391 12 8.00391C14.2078 8.00391 15.9984 9.79453 15.9984 12.0023C15.9984 14.2102 14.2078 16.0008 12 16.0008Z" fill="#717680"/>
<path d="M19.8469 5.59448C19.8469 6.39136 19.2 7.03355 18.4078 7.03355C17.6109 7.03355 16.9688 6.38667 16.9688 5.59448C16.9688 4.79761 17.6156 4.15542 18.4078 4.15542C19.2 4.15542 19.8469 4.8023 19.8469 5.59448Z" fill="#717680"/>
</svg>
