<svg width="86" height="32" viewBox="0 0 86 32" fill="none" xmlns="http://www.w3.org/2000/svg">
<g clip-path="url(#clip0_68_1155)">
<path d="M81.7 0.4H4.3C2.12308 0.4 0.358337 2.36995 0.358337 4.8V27.2C0.358337 29.6301 2.12308 31.6 4.3 31.6H81.7C83.8769 31.6 85.6417 29.6301 85.6417 27.2V4.8C85.6417 2.36995 83.8769 0.4 81.7 0.4Z" fill="black"/>
<path d="M81.7 0.4H4.3C2.12308 0.4 0.358337 2.36995 0.358337 4.8V27.2C0.358337 29.6301 2.12308 31.6 4.3 31.6H81.7C83.8769 31.6 85.6417 29.6301 85.6417 27.2V4.8C85.6417 2.36995 83.8769 0.4 81.7 0.4Z" stroke="#A6A6A6" stroke-width="0.716667"/>
<path d="M12.7601 15.5693L5.79755 24.0047C5.7982 24.0062 5.7982 24.0085 5.79885 24.01C6.0127 24.9259 6.74512 25.6 7.61487 25.6C7.96274 25.6 8.28911 25.4925 8.56897 25.3044L8.59119 25.2894L16.4281 20.1274L12.7601 15.5693Z" fill="#EA4335"/>
<path d="M19.8037 14.133L19.7972 14.1278L16.4137 11.889L12.6018 15.761L16.4274 20.1266L19.7926 17.9102C20.3824 17.5459 20.7833 16.836 20.7833 16.0178C20.7833 15.2042 20.3884 14.498 19.8037 14.133Z" fill="#FBBC04"/>
<path d="M5.79742 7.99463C5.75557 8.17078 5.73334 8.3559 5.73334 8.54702V23.453C5.73334 23.6441 5.75557 23.8293 5.79808 24.0047L12.9993 15.785L5.79742 7.99463Z" fill="#4285F4"/>
<path d="M12.8116 15.9999L16.4148 11.8875L8.58703 6.70681C8.30258 6.51197 7.97034 6.4 7.6153 6.4C6.74553 6.4 6.0118 7.07558 5.79796 7.99227L5.7973 7.99451L12.8116 15.9999Z" fill="#34A853"/>
<path d="M31.2538 9.36799C31.2538 10.168 31.0412 10.8054 30.616 11.28C30.1382 11.8454 29.51 12.128 28.7312 12.128C27.9858 12.128 27.3552 11.84 26.8392 11.264C26.3232 10.688 26.0652 9.97863 26.0652 9.13599C26.0652 8.29335 26.3232 7.58399 26.8392 7.00799C27.3552 6.43199 27.9858 6.14399 28.7312 6.14399C29.1086 6.14399 29.4645 6.21866 29.799 6.36799C30.1335 6.51733 30.4082 6.72799 30.6232 6.99999L30.1502 7.52799C29.9925 7.31466 29.787 7.14933 29.5338 7.03199C29.2854 6.90933 29.0178 6.84799 28.7312 6.84799C28.1722 6.84799 27.6992 7.06399 27.3122 7.49599C26.93 7.93333 26.7388 8.47999 26.7388 9.13599C26.7388 9.79199 26.93 10.3386 27.3122 10.776C27.6992 11.208 28.1722 11.424 28.7312 11.424C29.2424 11.424 29.6676 11.264 30.0068 10.944C30.346 10.624 30.542 10.184 30.5945 9.62399H28.7312V8.93599H31.218C31.2419 9.08535 31.2538 9.22935 31.2538 9.36799ZM35.0506 6.27199V6.97599H32.7142V8.79199H34.8212V9.47999H32.7142V11.296H35.0506V12H32.0549V6.27199H35.0506ZM37.6878 6.97599V12H37.0285V6.97599H35.5952V6.27199H39.1212V6.97599H37.6878ZM42.0435 12H41.3842V6.27199H42.0435V12ZM44.8266 6.97599V12H44.1672V6.97599H42.7339V6.27199H46.2599V6.97599H44.8266ZM53.4067 9.13599C53.4067 9.98399 53.1535 10.6934 52.647 11.264C52.1358 11.84 51.5099 12.128 50.7694 12.128C50.024 12.128 49.3982 11.84 48.8917 11.264C48.3852 10.6934 48.132 9.98399 48.132 9.13599C48.132 8.28799 48.3852 7.57866 48.8917 7.00799C49.3982 6.43199 50.024 6.14399 50.7694 6.14399C51.5147 6.14399 52.1406 6.43466 52.647 7.01599C53.1535 7.58666 53.4067 8.29335 53.4067 9.13599ZM48.8057 9.13599C48.8057 9.79735 48.992 10.344 49.3647 10.776C49.7422 11.208 50.2104 11.424 50.7694 11.424C51.3284 11.424 51.7942 11.208 52.1669 10.776C52.5443 10.3494 52.733 9.80263 52.733 9.13599C52.733 8.46935 52.5443 7.92266 52.1669 7.49599C51.7942 7.06399 51.3284 6.84799 50.7694 6.84799C50.2104 6.84799 49.7422 7.06399 49.3647 7.49599C48.992 7.92799 48.8057 8.47463 48.8057 9.13599ZM54.8441 12H54.1848V6.27199H54.9875L57.4815 10.728H57.5101L57.4815 9.62399V6.27199H58.1408V12H57.4528L54.8441 7.32799H54.8155L54.8441 8.43199V12Z" fill="white"/>
<path d="M67.0213 25.1278H68.1886V16.3185H67.0213V25.1278ZM77.5355 19.4917L76.1974 23.311H76.1573L74.7684 19.4917H73.5107L75.5933 24.8297L74.4065 27.7992H75.6234L78.8333 19.4917H77.5355ZM70.9155 24.127C70.5326 24.127 69.9996 23.9122 69.9996 23.3787C69.9996 22.6994 70.6634 22.4386 71.237 22.4386C71.7498 22.4386 71.992 22.5634 72.3038 22.7332C72.2128 23.5492 71.5893 24.127 70.9155 24.127ZM71.0563 19.2993C70.2111 19.2993 69.3353 19.7186 68.9737 20.6481L70.0097 21.135C70.2311 20.6481 70.6433 20.4888 71.0763 20.4888C71.6803 20.4888 72.2938 20.8968 72.3038 21.6226V21.7129C72.0924 21.5768 71.6399 21.3732 71.0863 21.3732C69.9696 21.3732 68.8323 22.0645 68.8323 23.3562C68.8323 24.5351 69.7481 25.2947 70.7741 25.2947C71.5592 25.2947 71.992 24.898 72.2637 24.4329H72.3038V25.113H73.4304V21.7354C73.4304 20.1717 72.3941 19.2993 71.0563 19.2993ZM63.8422 20.5642H62.1819V17.5446H63.8422C64.7149 17.5446 65.2103 18.3586 65.2103 19.0541C65.2103 19.7369 64.7149 20.5642 63.8422 20.5642ZM63.8121 16.3185H61.0152V25.1278H62.1819V21.7903H63.8121C65.1058 21.7903 66.3776 20.7347 66.3776 19.0541C66.3776 17.3734 65.1058 16.3185 63.8121 16.3185ZM48.5601 24.1285C47.7538 24.1285 47.0788 23.3682 47.0788 22.3238C47.0788 21.2682 47.7538 20.4958 48.5601 20.4958C49.3565 20.4958 49.9808 21.2682 49.9808 22.3238C49.9808 23.3682 49.3565 24.1285 48.5601 24.1285ZM49.9007 19.985H49.8601C49.5979 19.6334 49.0944 19.3155 48.4594 19.3155C47.1288 19.3155 45.9096 20.6318 45.9096 22.3238C45.9096 24.0038 47.1288 25.3095 48.4594 25.3095C49.0944 25.3095 49.5979 24.9917 49.8601 24.6281H49.9007V25.0601C49.9007 26.2066 49.3565 26.8197 48.4794 26.8197C47.7638 26.8197 47.3202 26.2404 47.1388 25.7521L46.121 26.2291C46.4132 27.024 47.1895 28 48.4794 28C49.85 28 51.0093 27.0917 51.0093 24.8782V19.4966H49.9007V19.985ZM51.8156 25.1278H52.9848V16.3178H51.8156V25.1278ZM54.7076 22.2216C54.6776 21.0638 55.504 20.4733 56.0982 20.4733C56.5624 20.4733 56.9553 20.7341 57.086 21.109L54.7076 22.2216ZM58.3359 21.2224C58.1144 20.553 57.4388 19.3155 56.0582 19.3155C54.6876 19.3155 53.549 20.5297 53.549 22.3126C53.549 23.9925 54.6776 25.3095 56.189 25.3095C57.4088 25.3095 58.1144 24.4695 58.4066 23.9812L57.4995 23.2998C57.1974 23.7994 56.7839 24.1285 56.189 24.1285C55.5946 24.1285 55.1712 23.8219 54.899 23.2209L58.4566 21.5627L58.3359 21.2224ZM29.9926 20.2351V21.5064H32.6932C32.6125 22.2216 32.401 22.7438 32.0789 23.1067C31.6853 23.5499 31.0704 24.0383 29.9926 24.0383C28.3292 24.0383 27.0292 22.5282 27.0292 20.6551C27.0292 18.7814 28.3292 17.2719 29.9926 17.2719C30.8896 17.2719 31.5446 17.6694 32.0282 18.1803L32.8246 17.2832C32.1489 16.5567 31.2525 16 29.9926 16C27.7149 16 25.8 18.0894 25.8 20.6551C25.8 23.2209 27.7149 25.3095 29.9926 25.3095C31.2218 25.3095 32.1489 24.855 32.8746 24.0038C33.6209 23.1638 33.8523 21.9834 33.8523 21.0293C33.8523 20.7341 33.8323 20.462 33.7917 20.2351H29.9926ZM36.9232 24.1285C36.1169 24.1285 35.4213 23.3794 35.4213 22.3126C35.4213 21.2337 36.1169 20.4958 36.9232 20.4958C37.729 20.4958 38.4247 21.2337 38.4247 22.3126C38.4247 23.3794 37.729 24.1285 36.9232 24.1285ZM36.9232 19.3155C35.4513 19.3155 34.2521 20.5755 34.2521 22.3126C34.2521 24.0383 35.4513 25.3095 36.9232 25.3095C38.3946 25.3095 39.5938 24.0383 39.5938 22.3126C39.5938 20.5755 38.3946 19.3155 36.9232 19.3155ZM42.7492 24.1285C41.9428 24.1285 41.2472 23.3794 41.2472 22.3126C41.2472 21.2337 41.9428 20.4958 42.7492 20.4958C43.5556 20.4958 44.2506 21.2337 44.2506 22.3126C44.2506 23.3794 43.5556 24.1285 42.7492 24.1285ZM42.7492 19.3155C41.2779 19.3155 40.0787 20.5755 40.0787 22.3126C40.0787 24.0383 41.2779 25.3095 42.7492 25.3095C44.2206 25.3095 45.4198 24.0383 45.4198 22.3126C45.4198 20.5755 44.2206 19.3155 42.7492 19.3155Z" fill="white"/>
</g>
<defs>
<clipPath id="clip0_68_1155">
<rect width="86" height="32" fill="white"/>
</clipPath>
</defs>
</svg>
