<svg width="34" height="24" viewBox="0 0 34 24" fill="red" xmlns="http://www.w3.org/2000/svg">
<path d="M33.6613 5.17856C33.6613 5.17856 33.3293 2.82588 32.3066 1.79284C31.0117 0.433213 29.5641 0.426548 28.9 0.34657C24.1453 -1.90682e-07 17.0066 0 17.0066 0H16.9934C16.9934 0 9.85469 -1.90682e-07 5.1 0.34657C4.43594 0.426548 2.98828 0.433213 1.69336 1.79284C0.670703 2.82588 0.345312 5.17856 0.345312 5.17856C0.345312 5.17856 0 7.94446 0 10.7037V13.2896C0 16.0489 0.338672 18.8148 0.338672 18.8148C0.338672 18.8148 0.670703 21.1675 1.68672 22.2005C2.98164 23.5601 4.68164 23.5135 5.43867 23.6601C8.16133 23.92 17 24 17 24C17 24 24.1453 23.9867 28.9 23.6468C29.5641 23.5668 31.0117 23.5601 32.3066 22.2005C33.3293 21.1675 33.6613 18.8148 33.6613 18.8148C33.6613 18.8148 34 16.0555 34 13.2896V10.7037C34 7.94446 33.6613 5.17856 33.6613 5.17856ZM13.4871 16.4288V6.8381L22.6711 11.6501L13.4871 16.4288Z" fill="#717680"/>
</svg>
